<svg xmlns="http://www.w3.org/2000/svg" viewBox="0 0 27.236 27.217">
  <g id="AccuStandard_Logo_Flat" transform="translate(-11.1 -10.13)">
    <ellipse id="Ellipse_44" data-name="Ellipse 44" cx="13.618" cy="13.608" rx="13.618" ry="13.608" transform="translate(11.1 10.13)" fill="#9e1b32"/>
    <path id="Path_932" data-name="Path 932" d="M92.317,127.309l-.228-1.279.275-.049.228,1.279ZM92,125.519l-.228-1.279.275-.049.228,1.279Zm-.32-1.791-.228-1.279.275-.049.228,1.279Zm-.639-3.58-.228-1.279.275-.049.228,1.279Z" transform="translate(-68.566 -93.495)" fill="#fff"/>
    <path id="Path_933" data-name="Path 933" d="M90.9,45.568l-.277-.043.215-1.381.277.043Zm.3-1.933-.277-.043.215-1.381.277.043Zm.3-1.933-.277-.043.215-1.381.277.043Zm.3-1.933-.277-.043.215-1.381.277.043Zm.3-1.933-.277-.043.215-1.381.277.043Z" transform="translate(-68.403 -22.606)" fill="#fff"/>
    <path id="Path_934" data-name="Path 934" d="M86.538,106.611l-.4-.152.08.445-.275.049-.092-.517-.485.2-.108-.259.575-.235.089-.582.277.043-.085.547.523.2Z" transform="translate(-63.792 -82.089)" fill="#fff"/>
    <path id="Path_935" data-name="Path 935" d="M38.576,115.531l-.106-.259,1.169-.481.106.259Zm1.636-.674-.106-.259,1.169-.481.106.259Zm1.636-.674-.106-.259,1.169-.481.106.259Zm1.636-.674-.106-.259,1.169-.481.106.259Z" transform="translate(-23.544 -88.291)" fill="#fff"/>
    <path id="Path_936" data-name="Path 936" d="M51.269,36.2l-11.8-15.7,0,0-.186-.247a.09.09,0,0,0-.157.024l0,0L28.86,36.065l-.041.063c-.027.039-.052.08-.078.119a.089.089,0,0,0,.031.126l.179.129.1.07,10.267,7.552,0,0a.091.091,0,0,0,.122.02l11.808-7.814a.088.088,0,0,0,.022-.127ZM38.992,21.244l-.106.677.25.039L39.218,33.4l-.688-.264-.1.26.79.3.017,2.291L38.04,36,38,35.788l-.275.049.029.164-8.04.078-.1-.232-.161.067Zm.288,21.7L39.006,43l.077.433-9.614-7.07L37.8,36.28l.15.836.275-.049-.141-.79,1.152-.011L39.289,43Z" transform="translate(-15.163 -8.672)" fill="#fff"/>
    <path id="Path_937" data-name="Path 937" d="M105.583,22.244l0,0,0,0Z" transform="translate(-81.271 -10.417)"/>
  </g>
</svg>
