<svg viewBox="0 0 33 32" fill="none" xmlns="http://www.w3.org/2000/svg">
<path d="M5.66725 7.5743C5.66725 8.53036 4.89652 9.30138 3.94081 9.30138C2.98509 9.30138 2.21436 8.53036 2.21436 7.5743C2.21436 6.61825 2.98509 5.84723 3.94081 5.84723C4.89652 5.84723 5.66725 6.61825 5.66725 7.5743Z" fill="#518EB1"/>
<path d="M20.8847 28.2498C20.8847 30.3223 19.2076 32 17.1358 32C15.0641 32 13.387 30.3223 13.387 28.2498C13.387 26.1773 15.0641 24.4996 17.1358 24.4996C19.2076 24.4996 20.8847 26.1773 20.8847 28.2498Z" fill="#518EB1"/>
<path d="M14.9656 2.91136C14.9656 4.53357 13.6523 5.84738 12.0307 5.84738C10.409 5.84738 9.0957 4.53357 9.0957 2.91136C9.0957 1.40633 10.2302 0.166539 11.6854 0H12.3698C13.8311 0.166539 14.9595 1.40633 14.9595 2.91136" fill="#518EB1"/>
<path d="M27.8394 9.24597C27.8394 10.1712 27.0872 10.9175 26.1685 10.9175C25.2497 10.9175 24.4913 10.165 24.4913 9.24597C24.4913 8.32692 25.2436 7.56824 26.1685 7.56824C27.0933 7.56824 27.8394 8.32075 27.8394 9.24597Z" fill="#518EB1"/>
<path d="M30.6143 17.1165C30.6143 18.7326 29.3071 20.0402 27.6917 20.0402C26.0762 20.0402 24.769 18.7326 24.769 17.1165C24.769 15.5005 26.0762 14.1928 27.6917 14.1928C29.3071 14.1928 30.6143 15.5005 30.6143 17.1165Z" fill="#518EB1"/>
<path d="M4.00814 8.91931C4.00814 8.91931 8.07145 15.1244 14.8848 28.5463L16.9873 28.904L17.4991 27.0783C17.4991 27.0783 12.1101 24.7714 5.0255 8.46904C3.44704 4.82984 4.00814 8.91931 4.00814 8.91931Z" fill="#518EB1"/>
<path d="M4.09516 6.74795C4.09516 6.74795 9.10803 4.82966 10.3659 2.39325L11.1798 3.57136C11.1798 3.57136 6.01892 6.00777 4.54527 7.55597C3.07162 9.10417 4.10133 6.74178 4.10133 6.74178" fill="#518EB1"/>
<path d="M11.7714 5.18737C12.2709 7.52509 15.9211 20.7742 15.434 25.9555L19.2692 26.2515C19.2692 26.2515 16.439 28.1821 12.7518 4.94681C11.8763 -0.57366 12.0489 3.59599 11.7776 4.70009C11.7406 4.86046 11.7344 5.027 11.7714 5.18737Z" fill="#518EB1"/>
<path d="M13.3865 2.2453C13.3865 2.2453 16.9257 5.48973 25.6998 8.74034L25.1078 9.84443C25.1078 9.84443 16.1858 3.94154 12.2026 3.57145L13.3803 2.2453" fill="#518EB1"/>
<path d="M16.9874 26.7697C16.9874 26.7697 22.9621 24.1113 26.3533 17.7704L27.827 18.8745C27.827 18.8745 24.6577 20.0527 19.2687 28.0959C16.7901 31.8029 16.9812 26.7697 16.9812 26.7697" fill="#518EB1"/>
</svg>
