<svg width="165" height="62" fill="none" xmlns="http://www.w3.org/2000/svg"><g clip-path="url(#a)"><path d="M13.128 45.824c-.6 1.645-6.414 1.66-6.99 0C4.321 40.576 0 23.934 0 23.934h5.029l4.62 17.42 4.604-17.42h5.028s-3.871 15.782-6.153 21.89ZM21.39 46.805V30.81h4.701v15.995H21.39ZM34.238 40.461v.46c0 1.84.72 2.335 2.873 2.335a18.392 18.392 0 0 0 4.834-.691l.687 3.55a18.759 18.759 0 0 1-5.995 1.02c-5.16 0-7.118-2.566-7.118-6.508V36.88c0-3.453 1.535-6.41 6.825-6.41 5.289 0 6.434 3.157 6.434 6.64v3.352h-8.54Zm4.114-4.24c0-1.117-.326-2.037-1.958-2.037-1.63 0-2.156.92-2.156 2.037v.691h4.114v-.69ZM55.583 35.861s-2.447 7.802-3.07 10.452c-.22.932-4.847 1.258-5.099 0-.9-4.527-2.743-15.996-2.743-15.996h4.312l1.499 9.356 2.774-9.356h4.705l2.74 9.356 1.5-9.356h4.312s-2.042 12.31-2.744 15.996c-.237 1.261-4.717 1.225-5.098 0-.911-3-.905-3-3.088-10.452ZM77.854 40.165H74.12v6.64h-4.888v-21.89h8.883c5.29 0 7.25 2.113 7.25 6.211v2.861c0 4.108-2.222 6.178-7.511 6.178Zm2.611-8.58c0-1.576-.554-2.3-2.611-2.3H74.12v6.607h3.725c2.156 0 2.611-.821 2.611-2.4l.01-1.907ZM87.485 40.663v-3.712c0-3.286 1.535-6.476 7.197-6.476 5.661 0 7.182 3.19 7.182 6.476v3.712c0 3.287-1.533 6.477-7.182 6.477-5.65 0-7.197-3.196-7.197-6.477Zm9.668.133v-3.984c0-1.509-.783-2.366-2.48-2.366s-2.483.854-2.483 2.366v3.978c0 1.51.783 2.366 2.483 2.366 1.7 0 2.48-.854 2.48-2.366v.006ZM105.621 27.988c-.6-.752-.744-3.26 0-3.875.699-.58 2.978-.64 3.625 0 .648.64.681 3.19 0 3.875-.68.685-3.04.715-3.625 0Zm-.336 18.811V30.804h4.702v15.995h-4.702ZM123.508 46.805V36.221c0-.724-.327-1.15-1.146-1.15-.818 0-2.399.604-3.427 1.15v10.584h-4.702V30.81h3.493l.489 1.207a15.98 15.98 0 0 1 6.336-1.545c2.699 0 3.659 2.037 3.659 5.13v11.21l-4.702-.007ZM137.613 47.134c-3.037 0-4.797-1.15-4.797-4.107v-8.418h-2.153v-3.811h2.153v-3.845l4.704-.658v4.503h3.626l-.264 3.811h-3.365v7.76c0 .658.39.887.981.887.664 0 1.325-.101 1.958-.302l.555 3.583a10.995 10.995 0 0 1-3.398.597ZM21.926 27.988c-.6-.752-.744-3.26 0-3.875.744-.616 2.978-.64 3.625 0 .648.64.681 3.19 0 3.875-.68.685-3.055.715-3.625 0Z" fill="#333"/><path d="M138.15 18.089h-5.856C132.294 4.176 143.725.5 149.767.5l.015 5.888C148.6 6.4 138.15 6.82 138.15 18.09Z" fill="url(#b)"/><path d="M147.524 35.578v-5.885c1.199 0 11.641-.431 11.641-11.704h5.847c-.012 13.922-11.428 17.59-17.488 17.59Z" fill="url(#c)"/><path d="M44.65 52.575h2.063c.941 0 1.625.133 2.05.405a1.407 1.407 0 0 1 .637 1.285c.014.349-.084.693-.28.981a1.11 1.11 0 0 1-.74.462v.045c.355.06.675.248.9.531a1.939 1.939 0 0 1-.378 2.457 2.814 2.814 0 0 1-1.781.51h-2.48l.009-6.676Zm1.406 2.644h.816c.287.022.574-.04.827-.178a.66.66 0 0 0 .258-.589.606.606 0 0 0-.279-.552 1.816 1.816 0 0 0-.884-.166h-.738v1.485Zm0 1.123v1.741h.9c.302.024.604-.054.857-.223a.823.823 0 0 0 .28-.685c0-.556-.395-.833-1.182-.833h-.855ZM53.082 59.345a2.603 2.603 0 0 1-1.916-.682 2.572 2.572 0 0 1-.69-1.928 2.855 2.855 0 0 1 .636-1.983 2.27 2.27 0 0 1 1.763-.7 2.223 2.223 0 0 1 1.676.603 2.334 2.334 0 0 1 .6 1.703v.675h-3.275c-.004.344.121.676.351.93a1.238 1.238 0 0 0 .918.332c.291.001.582-.031.866-.096.294-.071.58-.172.852-.302v1.077a3.31 3.31 0 0 1-.774.272c-.331.068-.669.102-1.007.1Zm-.198-4.303a.895.895 0 0 0-.69.28c-.18.227-.28.507-.285.797h1.944a1.173 1.173 0 0 0-.267-.797.916.916 0 0 0-.702-.28ZM60.96 59.251h-1.386V56.27c0-.737-.27-1.105-.816-1.105a.922.922 0 0 0-.84.398 2.427 2.427 0 0 0-.257 1.286v2.414h-1.386v-7.131h1.386v1.449c0 .111 0 .377-.033.796l-.033.41h.075a1.602 1.602 0 0 1 1.47-.748 1.789 1.789 0 0 1 1.358.483c.328.384.494.883.461 1.388v3.341ZM65.607 59.252l-.27-.695h-.036c-.19.256-.436.462-.72.604a2.294 2.294 0 0 1-.962.172 1.554 1.554 0 0 1-1.151-.422 1.613 1.613 0 0 1-.42-1.208 1.35 1.35 0 0 1 .567-1.207 3.225 3.225 0 0 1 1.703-.428l.881-.028v-.223c0-.52-.263-.776-.791-.776a3.58 3.58 0 0 0-1.43.369l-.456-.942a4.084 4.084 0 0 1 1.94-.459 2.42 2.42 0 0 1 1.568.447 1.653 1.653 0 0 1 .543 1.361v3.401l-.966.033Zm-.408-2.367-.536.019a1.724 1.724 0 0 0-.9.22.693.693 0 0 0-.3.603c0 .393.225.589.672.589a1.057 1.057 0 0 0 .768-.278.973.973 0 0 0 .3-.74l-.004-.413ZM69.206 59.251l-1.934-5.106h1.45l.981 2.909c.103.341.172.692.204 1.047h.015c.028-.356.096-.707.204-1.047l.978-2.91h1.445l-1.931 5.107h-1.412ZM73.22 52.826c0-.453.253-.682.753-.682.501 0 .753.229.753.682a.673.673 0 0 1-.186.504.791.791 0 0 1-.567.18c-.494 0-.752-.229-.752-.684Zm1.443 6.425h-1.382v-5.106h1.382v5.106ZM80.732 56.69a2.752 2.752 0 0 1-.653 1.952 2.369 2.369 0 0 1-1.82.703 2.529 2.529 0 0 1-1.287-.323 2.107 2.107 0 0 1-.857-.926 3.1 3.1 0 0 1-.3-1.407 2.728 2.728 0 0 1 .647-1.944 2.374 2.374 0 0 1 1.823-.694c.45-.01.896.1 1.29.32.37.208.669.524.858.906.21.44.313.924.3 1.412Zm-3.508 0a2.15 2.15 0 0 0 .249 1.146.882.882 0 0 0 .803.39.868.868 0 0 0 .798-.387c.184-.354.269-.751.243-1.15.026-.395-.06-.79-.246-1.138a.9.9 0 0 0-.803-.377.874.874 0 0 0-.798.377 2.123 2.123 0 0 0-.246 1.138ZM84.709 54.051c.156-.003.313.01.467.04l-.105 1.306a1.583 1.583 0 0 0-.407-.045c-.376-.02-.745.101-1.035.341a1.243 1.243 0 0 0-.369.96v2.598h-1.382v-5.106h1.046l.204.86h.07c.15-.281.37-.519.638-.691.258-.173.562-.264.873-.263ZM91.18 59.251h-1.407v-5.499h-1.799v-1.177h5.008v1.177h-1.8l-.002 5.499ZM96.19 59.345a2.615 2.615 0 0 1-1.916-.682 2.582 2.582 0 0 1-.69-1.928 2.843 2.843 0 0 1 .64-1.983 2.27 2.27 0 0 1 1.762-.7 2.221 2.221 0 0 1 1.674.603 2.321 2.321 0 0 1 .6 1.702v.676h-3.272c-.006.344.12.677.35.93a1.23 1.23 0 0 0 .915.332c.292.001.583-.031.867-.097.294-.07.58-.171.855-.301v1.077a3.334 3.334 0 0 1-.777.272 4.79 4.79 0 0 1-1.008.1Zm-.18-4.303a.874.874 0 0 0-.69.28 1.293 1.293 0 0 0-.284.797h1.94a1.157 1.157 0 0 0-.267-.797.9.9 0 0 0-.699-.28ZM101.447 59.345c-1.58 0-2.369-.873-2.369-2.62 0-.865.213-1.53.645-1.988a2.4 2.4 0 0 1 1.847-.685c.545-.01 1.085.11 1.577.347l-.408 1.077a7.497 7.497 0 0 0-.599-.217 1.9 1.9 0 0 0-.561-.084c-.724 0-1.085.514-1.083 1.542.002 1.028.363 1.53 1.083 1.509a2.411 2.411 0 0 0 1.418-.444v1.192a2.21 2.21 0 0 1-.677.302c-.288.058-.58.081-.873.07ZM108.848 59.251h-1.383V56.27c0-.737-.273-1.105-.818-1.105a.924.924 0 0 0-.84.398 2.445 2.445 0 0 0-.258 1.286v2.414h-1.385v-7.131h1.385v1.449c0 .111 0 .377-.033.796l-.03.41h.072a1.6 1.6 0 0 1 1.469-.748 1.791 1.791 0 0 1 1.359.483c.33.383.496.882.462 1.388v3.341ZM114.956 59.252h-1.383V56.27c.02-.29-.048-.58-.194-.83a.717.717 0 0 0-.624-.275.933.933 0 0 0-.84.39c-.202.399-.291.847-.258 1.294v2.415h-1.385v-5.119h1.059l.185.655h.087c.152-.246.374-.442.636-.561.291-.13.606-.194.924-.188a1.766 1.766 0 0 1 1.343.48c.328.386.493.885.459 1.392l-.009 3.328ZM120.992 56.69a2.751 2.751 0 0 1-.654 1.952 2.368 2.368 0 0 1-1.82.703 2.529 2.529 0 0 1-1.286-.323 2.124 2.124 0 0 1-.861-.926 3.146 3.146 0 0 1-.3-1.407 2.73 2.73 0 0 1 .648-1.944 2.371 2.371 0 0 1 1.823-.694c.451-.01.896.1 1.29.32.37.208.669.524.857.906.212.44.316.924.303 1.412Zm-3.508 0c-.025.397.061.794.249 1.146a.88.88 0 0 0 .803.39.868.868 0 0 0 .798-.387c.184-.354.268-.751.243-1.15.025-.395-.06-.79-.246-1.138a.9.9 0 0 0-.804-.377.868.868 0 0 0-.797.377 2.094 2.094 0 0 0-.246 1.138ZM123.52 59.251h-1.385v-7.12h1.385v7.12ZM129.595 56.69a2.766 2.766 0 0 1-.654 1.952 2.365 2.365 0 0 1-1.82.703 2.55 2.55 0 0 1-1.289-.323 2.14 2.14 0 0 1-.858-.926 3.146 3.146 0 0 1-.3-1.407 2.73 2.73 0 0 1 .651-1.944 2.371 2.371 0 0 1 1.823-.694c.451-.01.896.1 1.29.32.37.208.669.524.857.906.211.44.314.924.3 1.412Zm-3.508 0c-.025.397.061.794.249 1.146a1.028 1.028 0 0 0 .8.387 1.017 1.017 0 0 0 .801-.387c.184-.354.268-.752.243-1.15.025-.395-.06-.79-.246-1.138a.9.9 0 0 0-.804-.377.87.87 0 0 0-.797.377 2.118 2.118 0 0 0-.258 1.141h.012ZM135.143 54.145v.703l-.795.205c.146.229.223.495.219.767a1.56 1.56 0 0 1-.57 1.282 2.469 2.469 0 0 1-1.583.462l-.249-.015-.204-.021a.46.46 0 0 0-.213.365c0 .2.255.302.762.302h.863a1.96 1.96 0 0 1 1.272.36 1.292 1.292 0 0 1 .438 1.059 1.585 1.585 0 0 1-.741 1.39c-.496.329-1.206.493-2.132.493a2.943 2.943 0 0 1-1.622-.371 1.202 1.202 0 0 1-.561-1.045 1.096 1.096 0 0 1 .3-.772c.23-.229.522-.383.839-.444a.898.898 0 0 1-.371-.302.736.736 0 0 1 0-.926 1.88 1.88 0 0 1 .485-.38 1.377 1.377 0 0 1-.635-.559 1.702 1.702 0 0 1-.234-.905 1.595 1.595 0 0 1 .543-1.292c.443-.331.99-.493 1.541-.456.169.002.339.014.507.036.194.028.32.046.374.058l1.767.006Zm-3.917 5.834a.504.504 0 0 0 .276.45c.237.123.502.18.768.165a2.73 2.73 0 0 0 1.166-.205.626.626 0 0 0 .423-.561.394.394 0 0 0-.252-.398 2.035 2.035 0 0 0-.77-.11h-.717a1.088 1.088 0 0 0-.639.179.556.556 0 0 0-.255.48Zm.504-4.16c-.013.235.054.467.189.659a.676.676 0 0 0 .573.241.662.662 0 0 0 .573-.241 1.08 1.08 0 0 0 .179-.658c0-.604-.248-.906-.752-.906s-.762.287-.762.903v.003ZM135.251 54.145h1.517l.956 2.873a4 4 0 0 1 .168.887h.027c.031-.302.097-.6.195-.887l.942-2.873h1.499l-2.147 5.76a2.49 2.49 0 0 1-.842 1.208 2.121 2.121 0 0 1-1.278.398c-.237 0-.473-.026-.705-.078v-1.105c.179.041.363.062.546.06a.977.977 0 0 0 .642-.226c.204-.183.352-.42.429-.685l.081-.25-2.03-5.082Z" fill="#787878"/></g><defs><linearGradient id="b" x1="132.303" y1="9.294" x2="149.791" y2="9.294" gradientUnits="userSpaceOnUse"><stop stop-color="#ACCD8E"/><stop offset="1" stop-color="#7EBC43"/></linearGradient><linearGradient id="c" x1="147.512" y1="26.784" x2="165" y2="26.784" gradientUnits="userSpaceOnUse"><stop stop-color="#7EBC43"/><stop offset="1" stop-color="#ACCD8E"/></linearGradient><clipPath id="a"><path fill="#fff" transform="translate(0 .5)" d="M0 0h165v61H0z"/></clipPath></defs></svg>